<svg id="svg" version="1.1" xmlns="http://www.w3.org/2000/svg" xmlns:xlink="http://www.w3.org/1999/xlink" width="400" height="400" viewBox="0, 0, 400,400"><g id="svgg"><path id="path0" d="M213.600 137.600 C 213.600 137.820,212.610 138.000,211.400 138.000 C 210.190 138.000,209.200 138.180,209.200 138.400 C 209.200 138.620,208.480 138.800,207.600 138.800 C 206.720 138.800,206.000 138.980,206.000 139.200 C 206.000 139.420,205.280 139.600,204.400 139.600 C 203.520 139.600,202.800 139.780,202.800 140.000 C 202.800 140.220,202.260 140.400,201.600 140.400 C 200.940 140.400,200.400 140.580,200.400 140.800 C 200.400 141.020,199.860 141.200,199.200 141.200 C 198.540 141.200,198.000 141.364,198.000 141.565 C 198.000 141.766,197.281 142.051,196.402 142.200 C 195.523 142.348,194.703 142.634,194.578 142.835 C 194.454 143.036,194.003 143.200,193.576 143.200 C 193.149 143.200,192.800 143.380,192.800 143.600 C 192.800 143.820,192.440 144.000,192.000 144.000 C 191.560 144.000,191.200 144.180,191.200 144.400 C 191.200 144.620,190.840 144.800,190.400 144.800 C 189.960 144.800,189.600 144.980,189.600 145.200 C 189.600 145.420,189.240 145.600,188.800 145.600 C 188.360 145.600,188.000 145.758,188.000 145.951 C 188.000 146.145,187.460 146.527,186.800 146.800 C 186.140 147.073,185.600 147.455,185.600 147.649 C 185.600 147.842,185.280 148.000,184.888 148.000 C 184.497 148.000,183.917 148.360,183.600 148.800 C 183.283 149.240,182.743 149.600,182.400 149.600 C 182.057 149.600,181.517 149.960,181.200 150.400 C 180.883 150.840,180.420 151.200,180.171 151.200 C 179.922 151.200,179.154 151.740,178.463 152.400 C 177.772 153.060,177.112 153.600,176.996 153.600 C 176.880 153.600,175.624 154.725,174.205 156.100 C 172.786 157.475,170.759 159.410,169.700 160.400 C 168.642 161.390,167.333 162.830,166.792 163.600 C 166.251 164.370,165.312 165.522,164.704 166.159 C 164.097 166.797,163.600 167.522,163.600 167.771 C 163.600 168.020,163.240 168.483,162.800 168.800 C 162.360 169.117,162.000 169.697,162.000 170.088 C 162.000 170.480,161.850 170.800,161.668 170.800 C 161.485 170.800,161.080 171.295,160.768 171.900 C 160.455 172.505,159.975 173.238,159.700 173.529 C 158.692 174.594,159.108 175.548,160.700 175.822 C 197.371 182.140,223.797 206.787,226.614 237.300 L 226.864 240.000 228.281 240.000 C 244.879 240.000,261.504 251.075,270.009 267.798 C 271.015 269.777,272.127 271.452,272.480 271.520 C 273.131 271.645,283.600 261.568,283.600 260.816 C 283.600 260.602,284.230 259.797,285.000 259.027 C 285.770 258.257,286.400 257.441,286.400 257.213 C 286.400 256.986,286.550 256.800,286.732 256.800 C 286.915 256.800,287.320 256.305,287.632 255.700 C 287.945 255.095,288.515 254.251,288.900 253.825 C 289.285 253.398,289.600 252.900,289.600 252.717 C 289.600 252.534,290.050 251.671,290.600 250.800 C 291.150 249.929,291.600 248.942,291.600 248.608 C 291.600 248.274,291.780 248.000,292.000 248.000 C 292.220 248.000,292.400 247.640,292.400 247.200 C 292.400 246.760,292.580 246.400,292.800 246.400 C 293.020 246.400,293.200 246.040,293.200 245.600 C 293.200 245.160,293.380 244.800,293.600 244.800 C 293.820 244.800,294.000 244.440,294.000 244.000 C 294.000 243.560,294.180 243.200,294.400 243.200 C 294.620 243.200,294.800 242.845,294.800 242.412 C 294.800 241.979,295.160 240.983,295.600 240.200 C 296.040 239.417,296.400 238.421,296.400 237.988 C 296.400 237.555,296.580 237.200,296.800 237.200 C 297.020 237.200,297.200 236.671,297.200 236.024 C 297.200 235.377,297.380 234.736,297.600 234.600 C 297.820 234.464,298.000 233.733,298.000 232.976 C 298.000 232.219,298.180 231.600,298.400 231.600 C 298.620 231.600,298.800 230.880,298.800 230.000 C 298.800 229.120,298.980 228.400,299.200 228.400 C 299.422 228.400,299.600 227.333,299.600 226.000 C 299.600 224.667,299.778 223.600,300.000 223.600 C 300.257 223.600,300.400 219.600,300.400 212.400 C 300.400 205.200,300.257 201.200,300.000 201.200 C 299.780 201.200,299.600 200.221,299.600 199.024 C 299.600 197.827,299.420 196.736,299.200 196.600 C 298.980 196.464,298.800 195.744,298.800 195.000 C 298.800 194.256,298.620 193.536,298.400 193.400 C 298.180 193.264,298.000 192.533,298.000 191.776 C 298.000 191.019,297.820 190.400,297.600 190.400 C 297.380 190.400,297.200 189.860,297.200 189.200 C 297.200 188.540,297.020 188.000,296.800 188.000 C 296.580 188.000,296.400 187.460,296.400 186.800 C 296.400 186.140,296.220 185.600,296.000 185.600 C 295.780 185.600,295.600 185.240,295.600 184.800 C 295.600 184.360,295.420 184.000,295.200 184.000 C 294.980 184.000,294.800 183.460,294.800 182.800 C 294.800 182.140,294.620 181.600,294.400 181.600 C 294.180 181.600,294.000 181.240,294.000 180.800 C 294.000 180.360,293.820 180.000,293.600 180.000 C 293.380 180.000,293.200 179.640,293.200 179.200 C 293.200 178.760,293.020 178.400,292.800 178.400 C 292.580 178.400,292.400 178.040,292.400 177.600 C 292.400 177.160,292.265 176.799,292.100 176.799 C 291.935 176.798,291.467 175.988,291.060 174.999 C 290.654 174.009,290.159 173.200,289.960 173.200 C 289.762 173.200,289.600 172.880,289.600 172.488 C 289.600 172.097,289.240 171.517,288.800 171.200 C 288.360 170.883,288.000 170.343,288.000 170.000 C 288.000 169.657,287.640 169.117,287.200 168.800 C 286.760 168.483,286.400 168.020,286.400 167.771 C 286.400 167.522,285.903 166.797,285.296 166.159 C 284.688 165.522,283.752 164.370,283.216 163.600 C 282.679 162.830,281.355 161.390,280.274 160.400 C 279.192 159.410,277.162 157.475,275.761 156.100 C 274.361 154.725,273.120 153.600,273.004 153.600 C 272.888 153.600,272.228 153.060,271.537 152.400 C 270.846 151.740,270.078 151.200,269.829 151.200 C 269.580 151.200,269.117 150.840,268.800 150.400 C 268.483 149.960,267.943 149.600,267.600 149.600 C 267.257 149.600,266.717 149.240,266.400 148.800 C 266.083 148.360,265.503 148.000,265.112 148.000 C 264.720 148.000,264.400 147.842,264.400 147.649 C 264.400 147.455,263.860 147.073,263.200 146.800 C 262.540 146.527,262.000 146.145,262.000 145.951 C 262.000 145.758,261.640 145.600,261.200 145.600 C 260.760 145.600,260.400 145.420,260.400 145.200 C 260.400 144.980,260.040 144.800,259.600 144.800 C 259.160 144.800,258.800 144.620,258.800 144.400 C 258.800 144.180,258.440 144.000,258.000 144.000 C 257.560 144.000,257.200 143.820,257.200 143.600 C 257.200 143.380,256.851 143.200,256.424 143.200 C 255.997 143.200,255.536 143.020,255.400 142.800 C 255.264 142.580,254.848 142.399,254.476 142.398 C 254.104 142.396,253.284 142.126,252.654 141.798 C 252.024 141.469,251.079 141.200,250.554 141.200 C 250.029 141.200,249.600 141.020,249.600 140.800 C 249.600 140.580,249.060 140.400,248.400 140.400 C 247.740 140.400,247.200 140.220,247.200 140.000 C 247.200 139.780,246.480 139.600,245.600 139.600 C 244.720 139.600,244.000 139.420,244.000 139.200 C 244.000 138.980,243.280 138.800,242.400 138.800 C 241.520 138.800,240.800 138.620,240.800 138.400 C 240.800 138.180,239.810 138.000,238.600 138.000 C 237.390 138.000,236.400 137.820,236.400 137.600 C 236.400 137.343,232.333 137.200,225.000 137.200 C 217.667 137.200,213.600 137.343,213.600 137.600 " stroke="none" fill="#fba304" fill-rule="evenodd"></path><path id="path1" d="M220.000 62.400 C 220.000 62.620,219.640 62.800,219.200 62.800 C 218.760 62.800,218.400 62.980,218.400 63.200 C 218.400 63.420,218.144 63.600,217.832 63.600 C 217.092 63.600,213.600 67.092,213.600 67.832 C 213.600 68.144,213.420 68.400,213.200 68.400 C 212.980 68.400,212.800 68.760,212.800 69.200 C 212.800 69.640,212.620 70.000,212.400 70.000 C 212.138 70.000,212.000 78.125,212.000 93.576 C 212.000 108.863,212.141 117.240,212.400 117.400 C 212.620 117.536,212.800 117.997,212.800 118.424 C 212.800 118.851,212.980 119.200,213.200 119.200 C 213.420 119.200,213.600 119.435,213.600 119.722 C 213.600 123.960,225.953 127.062,231.546 124.227 C 233.663 123.155,236.400 120.636,236.400 119.760 C 236.400 119.452,236.580 119.200,236.800 119.200 C 237.020 119.200,237.200 118.851,237.200 118.424 C 237.200 117.997,237.380 117.536,237.600 117.400 C 237.859 117.240,238.000 108.863,238.000 93.576 C 238.000 78.125,237.862 70.000,237.600 70.000 C 237.380 70.000,237.200 69.640,237.200 69.200 C 237.200 68.760,237.020 68.400,236.800 68.400 C 236.580 68.400,236.400 68.144,236.400 67.832 C 236.400 67.519,235.576 66.439,234.568 65.432 C 233.561 64.424,232.481 63.600,232.168 63.600 C 231.856 63.600,231.600 63.420,231.600 63.200 C 231.600 62.980,231.240 62.800,230.800 62.800 C 230.360 62.800,230.000 62.620,230.000 62.400 C 230.000 62.155,228.067 62.000,225.000 62.000 C 221.933 62.000,220.000 62.155,220.000 62.400 M124.600 102.400 C 124.464 102.620,123.913 102.800,123.376 102.800 C 122.839 102.800,122.400 102.980,122.400 103.200 C 122.400 103.420,122.040 103.600,121.600 103.600 C 121.160 103.600,120.800 103.780,120.800 104.000 C 120.800 104.220,120.524 104.400,120.187 104.400 C 119.849 104.400,118.949 105.024,118.187 105.787 C 117.424 106.549,116.800 107.449,116.800 107.787 C 116.800 108.124,116.665 108.401,116.500 108.403 C 116.094 108.407,115.200 110.386,115.200 111.280 C 115.200 111.676,115.020 112.000,114.800 112.000 C 114.567 112.000,114.400 113.325,114.400 115.176 C 114.400 116.923,114.580 118.464,114.800 118.600 C 115.020 118.736,115.200 119.287,115.200 119.824 C 115.200 120.361,115.380 120.800,115.600 120.800 C 115.820 120.800,116.000 121.160,116.000 121.600 C 116.000 122.040,116.180 122.400,116.400 122.400 C 116.620 122.400,116.800 122.582,116.800 122.804 C 116.800 123.027,118.825 125.268,121.300 127.786 C 129.413 136.039,133.886 140.538,138.074 144.658 C 140.344 146.890,143.385 149.982,144.833 151.530 C 148.750 155.716,151.119 156.800,156.349 156.800 C 158.783 156.800,160.400 156.640,160.400 156.400 C 160.400 156.180,160.816 156.000,161.325 156.000 C 161.833 156.000,162.598 155.685,163.025 155.300 C 163.451 154.915,164.275 154.355,164.856 154.056 C 165.437 153.757,166.156 153.037,166.453 152.456 C 166.751 151.875,167.311 151.109,167.697 150.753 C 168.084 150.397,168.400 149.632,168.400 149.053 C 168.400 148.474,168.580 148.000,168.800 148.000 C 169.042 148.000,169.200 146.275,169.200 143.624 C 169.200 141.137,169.027 139.140,168.800 139.000 C 168.580 138.864,168.400 138.403,168.400 137.976 C 168.400 137.549,168.220 137.200,168.000 137.200 C 167.780 137.200,167.600 136.935,167.600 136.610 C 167.600 135.821,136.206 104.400,135.418 104.400 C 135.078 104.400,134.799 104.265,134.797 104.100 C 134.793 103.699,132.819 102.800,131.944 102.800 C 131.561 102.800,131.136 102.620,131.000 102.400 C 130.864 102.180,129.424 102.000,127.800 102.000 C 126.176 102.000,124.736 102.180,124.600 102.400 M319.000 102.400 C 318.864 102.620,318.439 102.800,318.056 102.800 C 317.181 102.800,315.207 103.699,315.203 104.100 C 315.201 104.265,314.922 104.400,314.582 104.400 C 313.794 104.400,282.400 135.821,282.400 136.610 C 282.400 136.935,282.264 137.200,282.097 137.200 C 281.931 137.200,281.571 137.917,281.297 138.794 C 280.699 140.712,280.621 148.000,281.200 148.000 C 281.420 148.000,281.600 148.500,281.600 149.112 C 281.600 149.765,281.930 150.461,282.400 150.800 C 282.840 151.117,283.200 151.631,283.200 151.942 C 283.200 152.513,285.131 154.399,285.717 154.400 C 285.891 154.400,286.420 154.760,286.892 155.200 C 287.364 155.640,288.167 156.000,288.675 156.000 C 289.184 156.000,289.600 156.180,289.600 156.400 C 289.600 156.640,291.217 156.800,293.651 156.800 C 298.881 156.800,301.250 155.716,305.167 151.530 C 306.615 149.982,309.656 146.890,311.926 144.658 C 316.114 140.538,320.587 136.039,328.700 127.786 C 331.175 125.268,333.200 123.027,333.200 122.804 C 333.200 122.582,333.335 122.399,333.500 122.397 C 333.901 122.393,334.800 120.419,334.800 119.544 C 334.800 119.161,334.980 118.736,335.200 118.600 C 335.420 118.464,335.600 116.923,335.600 115.176 C 335.600 113.325,335.433 112.000,335.200 112.000 C 334.980 112.000,334.800 111.676,334.800 111.280 C 334.800 110.386,333.906 108.407,333.500 108.403 C 333.335 108.401,333.200 108.124,333.200 107.787 C 333.200 106.991,330.609 104.400,329.813 104.400 C 329.476 104.400,329.200 104.220,329.200 104.000 C 329.200 103.780,328.840 103.600,328.400 103.600 C 327.960 103.600,327.600 103.420,327.600 103.200 C 327.600 102.980,327.060 102.800,326.400 102.800 C 325.740 102.800,325.200 102.620,325.200 102.400 C 325.200 102.169,323.941 102.000,322.224 102.000 C 320.587 102.000,319.136 102.180,319.000 102.400 M320.000 200.000 C 320.000 200.220,319.640 200.400,319.200 200.400 C 318.760 200.400,318.400 200.580,318.400 200.800 C 318.400 201.020,318.112 201.200,317.760 201.200 C 317.004 201.200,313.600 204.688,313.600 205.464 C 313.600 205.759,313.420 206.000,313.200 206.000 C 312.980 206.000,312.800 206.360,312.800 206.800 C 312.800 207.240,312.620 207.600,312.400 207.600 C 312.156 207.600,312.000 209.459,312.000 212.376 C 312.000 215.129,312.169 217.258,312.400 217.400 C 312.620 217.536,312.800 217.997,312.800 218.424 C 312.800 218.851,312.980 219.200,313.200 219.200 C 313.420 219.200,313.600 219.430,313.600 219.712 C 313.600 220.568,316.438 223.206,318.464 224.232 L 320.373 225.200 343.803 225.200 C 369.759 225.200,368.269 225.341,371.570 222.564 C 376.637 218.300,376.754 207.634,371.787 202.667 C 370.980 201.860,370.068 201.200,369.760 201.200 C 369.452 201.200,369.200 201.020,369.200 200.800 C 369.200 200.580,368.840 200.400,368.400 200.400 C 367.960 200.400,367.600 200.220,367.600 200.000 C 367.600 199.738,359.400 199.600,343.800 199.600 C 328.200 199.600,320.000 199.738,320.000 200.000 M293.779 275.792 C 291.409 276.981,289.600 278.481,289.600 279.258 C 289.600 279.569,289.240 280.083,288.800 280.400 C 288.330 280.739,288.000 281.435,288.000 282.088 C 288.000 282.700,287.820 283.200,287.600 283.200 C 287.358 283.200,287.200 284.925,287.200 287.576 C 287.200 290.063,287.373 292.060,287.600 292.200 C 287.820 292.336,288.000 292.797,288.000 293.224 C 288.000 293.651,288.180 294.000,288.400 294.000 C 288.620 294.000,288.800 294.263,288.800 294.585 C 288.800 295.259,291.274 297.983,297.118 303.742 C 303.494 310.026,308.344 314.891,311.311 317.979 C 312.801 319.530,314.286 320.800,314.611 320.800 C 314.935 320.800,315.201 320.935,315.203 321.100 C 315.207 321.501,317.181 322.400,318.056 322.400 C 318.439 322.400,318.864 322.580,319.000 322.800 C 319.136 323.020,320.587 323.200,322.224 323.200 C 323.941 323.200,325.200 323.031,325.200 322.800 C 325.200 322.580,325.740 322.400,326.400 322.400 C 327.060 322.400,327.600 322.220,327.600 322.000 C 327.600 321.780,327.960 321.600,328.400 321.600 C 328.840 321.600,329.200 321.420,329.200 321.200 C 329.200 320.980,329.435 320.800,329.722 320.800 C 330.497 320.800,333.200 318.193,333.200 317.446 C 333.200 317.091,333.380 316.800,333.600 316.800 C 333.820 316.800,334.000 316.440,334.000 316.000 C 334.000 315.560,334.180 315.200,334.400 315.200 C 334.620 315.200,334.800 314.761,334.800 314.224 C 334.800 313.687,334.980 313.136,335.200 313.000 C 335.816 312.619,335.662 307.595,334.980 305.800 C 334.645 304.920,334.267 303.885,334.139 303.500 C 334.011 303.115,333.748 302.800,333.553 302.800 C 333.359 302.800,333.200 302.528,333.200 302.196 C 333.200 301.139,308.594 276.865,306.413 275.769 C 303.544 274.328,296.673 274.341,293.779 275.792 " stroke="none" fill="#242424" fill-rule="evenodd"></path><path id="path2" d="M137.800 175.080 C 137.140 175.169,135.340 175.519,133.800 175.859 C 132.260 176.199,130.413 176.570,129.696 176.683 C 128.979 176.796,128.294 177.049,128.173 177.244 C 128.052 177.440,127.524 177.600,127.000 177.600 C 126.476 177.600,125.958 177.744,125.849 177.921 C 125.740 178.097,124.739 178.490,123.625 178.793 C 122.511 179.096,121.600 179.492,121.600 179.672 C 121.600 179.853,121.328 180.000,120.995 180.000 C 120.662 180.000,120.077 180.160,119.695 180.356 C 119.313 180.552,118.100 181.137,117.000 181.656 C 115.900 182.175,114.940 182.735,114.867 182.900 C 114.793 183.065,114.478 183.200,114.167 183.200 C 113.855 183.200,113.600 183.380,113.600 183.600 C 113.600 183.820,113.240 184.000,112.800 184.000 C 112.360 184.000,112.000 184.180,112.000 184.400 C 112.000 184.620,111.764 184.800,111.475 184.800 C 111.187 184.800,110.564 185.160,110.092 185.600 C 109.620 186.040,109.086 186.400,108.905 186.400 C 108.724 186.400,108.317 186.760,108.000 187.200 C 107.683 187.640,107.175 188.000,106.872 188.000 C 106.569 188.000,105.817 188.540,105.200 189.200 C 104.583 189.860,103.887 190.400,103.653 190.400 C 102.732 190.400,93.358 199.591,92.400 201.432 C 92.070 202.067,91.305 203.111,90.700 203.752 C 90.095 204.394,89.600 205.162,89.600 205.459 C 89.600 205.757,89.420 206.000,89.200 206.000 C 88.980 206.000,88.800 206.320,88.800 206.712 C 88.800 207.103,88.440 207.683,88.000 208.000 C 87.560 208.317,87.200 208.882,87.200 209.255 C 87.200 209.628,87.065 209.993,86.900 210.067 C 86.401 210.288,84.800 213.622,84.800 214.438 C 84.800 214.857,84.620 215.200,84.400 215.200 C 84.180 215.200,84.000 215.549,84.000 215.976 C 84.000 216.403,83.820 216.864,83.600 217.000 C 83.380 217.136,83.200 217.766,83.200 218.400 C 83.200 219.034,83.020 219.664,82.800 219.800 C 82.580 219.936,82.400 220.577,82.400 221.224 C 82.400 221.871,82.238 222.400,82.040 222.400 C 81.624 222.400,81.243 224.845,80.949 229.400 C 80.835 231.160,80.575 232.771,80.371 232.980 C 80.167 233.189,80.000 234.764,80.000 236.480 L 80.000 239.600 76.600 239.600 C 74.600 239.600,73.200 239.765,73.200 240.000 C 73.200 240.222,72.133 240.400,70.800 240.400 C 69.467 240.400,68.400 240.578,68.400 240.800 C 68.400 241.020,67.691 241.200,66.824 241.200 C 65.957 241.200,65.136 241.380,65.000 241.600 C 64.864 241.820,64.351 242.000,63.861 242.000 C 62.922 242.000,58.985 243.281,58.532 243.735 C 58.386 243.881,57.937 244.000,57.533 244.000 C 57.130 244.000,56.800 244.180,56.800 244.400 C 56.800 244.620,56.440 244.800,56.000 244.800 C 55.560 244.800,55.200 244.980,55.200 245.200 C 55.200 245.420,54.840 245.600,54.400 245.600 C 53.960 245.600,53.600 245.780,53.600 246.000 C 53.600 246.220,53.280 246.400,52.888 246.400 C 52.497 246.400,51.917 246.760,51.600 247.200 C 51.283 247.640,50.703 248.000,50.312 248.000 C 49.920 248.000,49.600 248.150,49.600 248.332 C 49.600 248.515,49.111 248.920,48.512 249.232 C 46.672 250.193,36.400 259.933,36.400 260.718 C 36.400 260.886,36.040 261.283,35.600 261.600 C 35.160 261.917,34.800 262.407,34.800 262.688 C 34.800 262.970,34.620 263.200,34.400 263.200 C 34.180 263.200,34.000 263.388,34.000 263.617 C 34.000 263.846,33.640 264.420,33.200 264.892 C 32.760 265.364,32.400 265.987,32.400 266.275 C 32.400 266.564,32.220 266.800,32.000 266.800 C 31.780 266.800,31.600 267.160,31.600 267.600 C 31.600 268.040,31.420 268.400,31.200 268.400 C 30.980 268.400,30.800 268.760,30.800 269.200 C 30.800 269.640,30.620 270.000,30.400 270.000 C 30.180 270.000,30.000 270.360,30.000 270.800 C 30.000 271.240,29.820 271.600,29.600 271.600 C 29.380 271.600,29.200 271.960,29.200 272.400 C 29.200 272.840,29.020 273.200,28.800 273.200 C 28.580 273.200,28.400 273.562,28.400 274.005 C 28.400 274.448,28.241 275.123,28.047 275.505 C 25.388 280.732,24.319 293.065,25.923 300.000 C 26.875 304.115,28.369 308.497,28.900 308.733 C 29.065 308.807,29.200 309.212,29.200 309.633 C 29.200 310.055,29.380 310.400,29.600 310.400 C 29.820 310.400,30.000 310.760,30.000 311.200 C 30.000 311.640,30.180 312.000,30.400 312.000 C 30.620 312.000,30.800 312.236,30.800 312.525 C 30.800 312.813,31.160 313.436,31.600 313.908 C 32.040 314.380,32.400 315.004,32.400 315.295 C 32.400 315.586,32.760 316.083,33.200 316.400 C 33.640 316.717,34.000 317.183,34.000 317.435 C 34.000 317.843,35.960 320.068,39.694 323.900 C 40.391 324.615,41.195 325.200,41.481 325.200 C 41.766 325.200,42.000 325.352,42.000 325.539 C 42.000 326.071,43.444 327.600,43.947 327.600 C 44.196 327.600,44.400 327.780,44.400 328.000 C 44.400 328.220,44.604 328.400,44.853 328.400 C 45.102 328.400,45.597 328.716,45.953 329.103 C 46.309 329.489,47.095 330.060,47.700 330.370 C 48.305 330.681,48.800 331.085,48.800 331.268 C 48.800 331.450,49.160 331.600,49.600 331.600 C 50.040 331.600,50.400 331.780,50.400 332.000 C 50.400 332.220,50.760 332.400,51.200 332.400 C 51.640 332.400,52.000 332.580,52.000 332.800 C 52.000 333.020,52.360 333.200,52.800 333.200 C 53.240 333.200,53.600 333.380,53.600 333.600 C 53.600 333.820,53.960 334.000,54.400 334.000 C 54.840 334.000,55.200 334.180,55.200 334.400 C 55.200 334.620,55.549 334.800,55.976 334.800 C 56.403 334.800,56.864 334.980,57.000 335.200 C 57.136 335.420,57.687 335.600,58.224 335.600 C 58.761 335.600,59.200 335.780,59.200 336.000 C 59.200 336.220,59.830 336.400,60.600 336.400 C 61.370 336.400,62.000 336.580,62.000 336.800 C 62.000 337.020,62.709 337.200,63.576 337.200 C 64.443 337.200,65.264 337.380,65.400 337.600 C 65.743 338.154,236.400 338.154,236.400 337.600 C 236.400 337.380,237.210 337.200,238.200 337.200 C 239.190 337.200,240.000 337.020,240.000 336.800 C 240.000 336.580,240.540 336.400,241.200 336.400 C 241.860 336.400,242.400 336.220,242.400 336.000 C 242.400 335.780,242.940 335.600,243.600 335.600 C 244.260 335.600,244.800 335.453,244.800 335.272 C 244.800 335.092,245.700 334.700,246.800 334.400 C 247.900 334.100,248.800 333.708,248.800 333.528 C 248.800 333.347,249.160 333.200,249.600 333.200 C 250.040 333.200,250.400 333.020,250.400 332.800 C 250.400 332.580,250.670 332.400,251.000 332.400 C 251.330 332.400,251.600 332.220,251.600 332.000 C 251.600 331.780,251.870 331.600,252.200 331.600 C 252.530 331.600,252.800 331.420,252.800 331.200 C 252.800 330.980,253.120 330.800,253.512 330.800 C 253.903 330.800,254.483 330.440,254.800 330.000 C 255.117 329.560,255.607 329.200,255.888 329.200 C 256.170 329.200,256.400 329.020,256.400 328.800 C 256.400 328.580,256.658 328.400,256.973 328.400 C 257.288 328.400,257.651 328.069,257.780 327.664 C 257.908 327.259,258.503 326.674,259.100 326.364 C 260.194 325.797,264.400 321.832,264.400 321.369 C 264.400 321.233,264.940 320.617,265.600 320.000 C 266.260 319.383,266.800 318.631,266.800 318.328 C 266.800 318.025,267.160 317.517,267.600 317.200 C 268.040 316.883,268.400 316.303,268.400 315.912 C 268.400 315.520,268.561 315.200,268.758 315.200 C 269.197 315.200,272.400 308.727,272.400 307.839 C 272.400 307.488,272.580 307.200,272.800 307.200 C 273.020 307.200,273.200 306.786,273.200 306.280 C 273.200 305.774,273.357 305.189,273.549 304.980 C 275.778 302.556,275.805 278.331,273.583 274.305 C 273.373 273.923,273.200 273.255,273.200 272.820 C 273.200 272.384,272.859 271.846,272.442 271.622 C 272.025 271.399,271.005 269.818,270.176 268.108 C 262.152 251.566,244.913 240.000,228.281 240.000 L 226.864 240.000 226.614 237.300 C 223.871 207.599,197.392 182.237,162.827 176.203 C 160.943 175.875,159.341 175.424,159.268 175.203 C 159.139 174.816,140.570 174.710,137.800 175.080 " stroke="none" fill="#1c74d4" fill-rule="evenodd"></path></g></svg>